<mxfile host="app.diagrams.net" agent="Mozilla/5.0 (Macintosh; Intel Mac OS X 10_15_7) AppleWebKit/537.36 (KHTML, like Gecko) Chrome/134.0.0.0 Safari/537.36" version="26.1.3" pages="3">
  <diagram name="Page-1" id="HZ-2BI7pOylwrnwWMa7h">
    <mxGraphModel dx="1434" dy="761" grid="1" gridSize="10" guides="1" tooltips="1" connect="1" arrows="1" fold="1" page="1" pageScale="1" pageWidth="850" pageHeight="1100" math="0" shadow="0">
      <root>
        <mxCell id="0" />
        <mxCell id="1" parent="0" />
        <mxCell id="RAErmK7PQOk4JsSWftYg-10" style="edgeStyle=orthogonalEdgeStyle;rounded=0;orthogonalLoop=1;jettySize=auto;html=1;entryX=0;entryY=0.5;entryDx=0;entryDy=0;" edge="1" parent="1" source="RAErmK7PQOk4JsSWftYg-1" target="RAErmK7PQOk4JsSWftYg-5">
          <mxGeometry relative="1" as="geometry" />
        </mxCell>
        <mxCell id="RAErmK7PQOk4JsSWftYg-11" style="edgeStyle=orthogonalEdgeStyle;rounded=0;orthogonalLoop=1;jettySize=auto;html=1;entryX=0.5;entryY=0;entryDx=0;entryDy=0;" edge="1" parent="1" source="RAErmK7PQOk4JsSWftYg-1" target="RAErmK7PQOk4JsSWftYg-4">
          <mxGeometry relative="1" as="geometry" />
        </mxCell>
        <mxCell id="RAErmK7PQOk4JsSWftYg-12" style="edgeStyle=orthogonalEdgeStyle;rounded=0;orthogonalLoop=1;jettySize=auto;html=1;" edge="1" parent="1" source="RAErmK7PQOk4JsSWftYg-1" target="RAErmK7PQOk4JsSWftYg-3">
          <mxGeometry relative="1" as="geometry" />
        </mxCell>
        <mxCell id="RAErmK7PQOk4JsSWftYg-13" style="edgeStyle=orthogonalEdgeStyle;rounded=0;orthogonalLoop=1;jettySize=auto;html=1;entryX=0.5;entryY=0;entryDx=0;entryDy=0;" edge="1" parent="1" source="RAErmK7PQOk4JsSWftYg-1" target="RAErmK7PQOk4JsSWftYg-2">
          <mxGeometry relative="1" as="geometry" />
        </mxCell>
        <mxCell id="RAErmK7PQOk4JsSWftYg-1" value="Dashboard" style="whiteSpace=wrap;html=1;aspect=fixed;" vertex="1" parent="1">
          <mxGeometry x="425" y="70" width="80" height="80" as="geometry" />
        </mxCell>
        <mxCell id="RAErmK7PQOk4JsSWftYg-2" value="Procurement" style="whiteSpace=wrap;html=1;aspect=fixed;" vertex="1" parent="1">
          <mxGeometry x="650" y="200" width="80" height="80" as="geometry" />
        </mxCell>
        <mxCell id="RAErmK7PQOk4JsSWftYg-8" style="edgeStyle=orthogonalEdgeStyle;rounded=0;orthogonalLoop=1;jettySize=auto;html=1;" edge="1" parent="1" source="RAErmK7PQOk4JsSWftYg-3" target="RAErmK7PQOk4JsSWftYg-6">
          <mxGeometry relative="1" as="geometry" />
        </mxCell>
        <mxCell id="RAErmK7PQOk4JsSWftYg-3" value="Users" style="whiteSpace=wrap;html=1;aspect=fixed;" vertex="1" parent="1">
          <mxGeometry x="425" y="200" width="80" height="80" as="geometry" />
        </mxCell>
        <mxCell id="RAErmK7PQOk4JsSWftYg-7" style="edgeStyle=orthogonalEdgeStyle;rounded=0;orthogonalLoop=1;jettySize=auto;html=1;" edge="1" parent="1" source="RAErmK7PQOk4JsSWftYg-4" target="RAErmK7PQOk4JsSWftYg-5">
          <mxGeometry relative="1" as="geometry" />
        </mxCell>
        <mxCell id="RAErmK7PQOk4JsSWftYg-4" value="Applications" style="whiteSpace=wrap;html=1;aspect=fixed;" vertex="1" parent="1">
          <mxGeometry x="190" y="200" width="80" height="80" as="geometry" />
        </mxCell>
        <mxCell id="RAErmK7PQOk4JsSWftYg-5" value="App page" style="whiteSpace=wrap;html=1;aspect=fixed;" vertex="1" parent="1">
          <mxGeometry x="190" y="320" width="80" height="80" as="geometry" />
        </mxCell>
        <mxCell id="RAErmK7PQOk4JsSWftYg-9" style="edgeStyle=orthogonalEdgeStyle;rounded=0;orthogonalLoop=1;jettySize=auto;html=1;entryX=1;entryY=0.5;entryDx=0;entryDy=0;" edge="1" parent="1" source="RAErmK7PQOk4JsSWftYg-6" target="RAErmK7PQOk4JsSWftYg-5">
          <mxGeometry relative="1" as="geometry" />
        </mxCell>
        <mxCell id="RAErmK7PQOk4JsSWftYg-6" value="User page" style="whiteSpace=wrap;html=1;aspect=fixed;" vertex="1" parent="1">
          <mxGeometry x="425" y="320" width="80" height="80" as="geometry" />
        </mxCell>
      </root>
    </mxGraphModel>
  </diagram>
  <diagram id="J7nAmyXx0Jyz4rawUPmy" name="Page-2">
    <mxGraphModel dx="1195" dy="634" grid="1" gridSize="10" guides="1" tooltips="1" connect="1" arrows="1" fold="1" page="1" pageScale="1" pageWidth="850" pageHeight="1100" math="0" shadow="0">
      <root>
        <mxCell id="0" />
        <mxCell id="1" parent="0" />
        <mxCell id="RUvTbH-vuZG6BQ2jyu1d-2" value="Управління ІТ-підписками" style="swimlane;whiteSpace=wrap;html=1;" vertex="1" parent="1">
          <mxGeometry x="160" y="70" width="505" height="530" as="geometry" />
        </mxCell>
        <mxCell id="RUvTbH-vuZG6BQ2jyu1d-5" value="З&lt;span style=&quot;background-color: transparent; color: light-dark(rgb(0, 0, 0), rgb(255, 255, 255));&quot;&gt;апрошення користувачів&lt;/span&gt;" style="ellipse;whiteSpace=wrap;html=1;" vertex="1" parent="RUvTbH-vuZG6BQ2jyu1d-2">
          <mxGeometry x="50" y="90" width="120" height="80" as="geometry" />
        </mxCell>
        <mxCell id="RUvTbH-vuZG6BQ2jyu1d-6" value="Реєстрація/ав&lt;span style=&quot;background-color: transparent; color: light-dark(rgb(0, 0, 0), rgb(255, 255, 255));&quot;&gt;торизація&lt;/span&gt;" style="ellipse;whiteSpace=wrap;html=1;" vertex="1" parent="RUvTbH-vuZG6BQ2jyu1d-2">
          <mxGeometry x="205" y="40" width="120" height="80" as="geometry" />
        </mxCell>
        <mxCell id="RUvTbH-vuZG6BQ2jyu1d-7" value="Створення та редагування сервісів та інформації про них" style="ellipse;whiteSpace=wrap;html=1;" vertex="1" parent="RUvTbH-vuZG6BQ2jyu1d-2">
          <mxGeometry x="30" y="200" width="190" height="110" as="geometry" />
        </mxCell>
        <mxCell id="RUvTbH-vuZG6BQ2jyu1d-8" value="Стоврення запитів на закупівлю" style="ellipse;whiteSpace=wrap;html=1;" vertex="1" parent="RUvTbH-vuZG6BQ2jyu1d-2">
          <mxGeometry x="240" y="140" width="120" height="80" as="geometry" />
        </mxCell>
        <mxCell id="RUvTbH-vuZG6BQ2jyu1d-9" value="Обробка запитів на закупівлю" style="ellipse;whiteSpace=wrap;html=1;" vertex="1" parent="RUvTbH-vuZG6BQ2jyu1d-2">
          <mxGeometry x="240" y="280" width="120" height="80" as="geometry" />
        </mxCell>
        <mxCell id="RUvTbH-vuZG6BQ2jyu1d-10" value="Призначення ліцензій користувачам" style="ellipse;whiteSpace=wrap;html=1;" vertex="1" parent="RUvTbH-vuZG6BQ2jyu1d-2">
          <mxGeometry x="290" y="410" width="120" height="80" as="geometry" />
        </mxCell>
        <mxCell id="RUvTbH-vuZG6BQ2jyu1d-11" value="Фінансовий облік" style="ellipse;whiteSpace=wrap;html=1;" vertex="1" parent="RUvTbH-vuZG6BQ2jyu1d-2">
          <mxGeometry x="55" y="360" width="120" height="80" as="geometry" />
        </mxCell>
        <mxCell id="RUvTbH-vuZG6BQ2jyu1d-12" style="edgeStyle=orthogonalEdgeStyle;rounded=0;orthogonalLoop=1;jettySize=auto;html=1;entryX=0;entryY=0.5;entryDx=0;entryDy=0;" edge="1" parent="1" source="RUvTbH-vuZG6BQ2jyu1d-3" target="RUvTbH-vuZG6BQ2jyu1d-7">
          <mxGeometry relative="1" as="geometry">
            <Array as="points">
              <mxPoint x="140" y="360" />
              <mxPoint x="140" y="325" />
            </Array>
          </mxGeometry>
        </mxCell>
        <mxCell id="RUvTbH-vuZG6BQ2jyu1d-13" style="edgeStyle=orthogonalEdgeStyle;rounded=0;orthogonalLoop=1;jettySize=auto;html=1;entryX=0;entryY=0.5;entryDx=0;entryDy=0;" edge="1" parent="1" source="RUvTbH-vuZG6BQ2jyu1d-3" target="RUvTbH-vuZG6BQ2jyu1d-5">
          <mxGeometry relative="1" as="geometry">
            <Array as="points">
              <mxPoint x="140" y="360" />
              <mxPoint x="140" y="200" />
            </Array>
          </mxGeometry>
        </mxCell>
        <mxCell id="RUvTbH-vuZG6BQ2jyu1d-14" style="edgeStyle=orthogonalEdgeStyle;rounded=0;orthogonalLoop=1;jettySize=auto;html=1;entryX=0;entryY=0.5;entryDx=0;entryDy=0;" edge="1" parent="1" source="RUvTbH-vuZG6BQ2jyu1d-3" target="RUvTbH-vuZG6BQ2jyu1d-11">
          <mxGeometry relative="1" as="geometry">
            <Array as="points">
              <mxPoint x="140" y="360" />
              <mxPoint x="140" y="470" />
            </Array>
          </mxGeometry>
        </mxCell>
        <mxCell id="RUvTbH-vuZG6BQ2jyu1d-16" style="edgeStyle=orthogonalEdgeStyle;rounded=0;orthogonalLoop=1;jettySize=auto;html=1;" edge="1" parent="1" source="RUvTbH-vuZG6BQ2jyu1d-3" target="RUvTbH-vuZG6BQ2jyu1d-9">
          <mxGeometry relative="1" as="geometry">
            <Array as="points">
              <mxPoint x="140" y="360" />
              <mxPoint x="140" y="390" />
            </Array>
          </mxGeometry>
        </mxCell>
        <mxCell id="RUvTbH-vuZG6BQ2jyu1d-17" style="edgeStyle=orthogonalEdgeStyle;rounded=0;orthogonalLoop=1;jettySize=auto;html=1;entryX=0;entryY=0.5;entryDx=0;entryDy=0;" edge="1" parent="1" source="RUvTbH-vuZG6BQ2jyu1d-3" target="RUvTbH-vuZG6BQ2jyu1d-10">
          <mxGeometry relative="1" as="geometry">
            <Array as="points">
              <mxPoint x="140" y="360" />
              <mxPoint x="140" y="520" />
            </Array>
          </mxGeometry>
        </mxCell>
        <mxCell id="RUvTbH-vuZG6BQ2jyu1d-18" style="edgeStyle=orthogonalEdgeStyle;rounded=0;orthogonalLoop=1;jettySize=auto;html=1;entryX=0;entryY=0.5;entryDx=0;entryDy=0;" edge="1" parent="1" source="RUvTbH-vuZG6BQ2jyu1d-3" target="RUvTbH-vuZG6BQ2jyu1d-6">
          <mxGeometry relative="1" as="geometry">
            <Array as="points">
              <mxPoint x="140" y="360" />
              <mxPoint x="140" y="150" />
            </Array>
          </mxGeometry>
        </mxCell>
        <mxCell id="RUvTbH-vuZG6BQ2jyu1d-19" style="edgeStyle=orthogonalEdgeStyle;rounded=0;orthogonalLoop=1;jettySize=auto;html=1;entryX=0;entryY=0.5;entryDx=0;entryDy=0;" edge="1" parent="1" source="RUvTbH-vuZG6BQ2jyu1d-3" target="RUvTbH-vuZG6BQ2jyu1d-8">
          <mxGeometry relative="1" as="geometry">
            <Array as="points">
              <mxPoint x="140" y="360" />
              <mxPoint x="140" y="250" />
            </Array>
          </mxGeometry>
        </mxCell>
        <mxCell id="RUvTbH-vuZG6BQ2jyu1d-3" value="Адміністратор" style="shape=umlActor;verticalLabelPosition=bottom;verticalAlign=top;html=1;outlineConnect=0;" vertex="1" parent="1">
          <mxGeometry x="70" y="330" width="30" height="60" as="geometry" />
        </mxCell>
        <mxCell id="RUvTbH-vuZG6BQ2jyu1d-21" style="edgeStyle=orthogonalEdgeStyle;rounded=0;orthogonalLoop=1;jettySize=auto;html=1;entryX=1;entryY=0.5;entryDx=0;entryDy=0;" edge="1" parent="1" source="RUvTbH-vuZG6BQ2jyu1d-4" target="RUvTbH-vuZG6BQ2jyu1d-8">
          <mxGeometry relative="1" as="geometry">
            <Array as="points">
              <mxPoint x="690" y="350" />
              <mxPoint x="690" y="250" />
            </Array>
          </mxGeometry>
        </mxCell>
        <mxCell id="RUvTbH-vuZG6BQ2jyu1d-22" style="edgeStyle=orthogonalEdgeStyle;rounded=0;orthogonalLoop=1;jettySize=auto;html=1;entryX=1;entryY=0.5;entryDx=0;entryDy=0;" edge="1" parent="1" source="RUvTbH-vuZG6BQ2jyu1d-4" target="RUvTbH-vuZG6BQ2jyu1d-6">
          <mxGeometry relative="1" as="geometry">
            <Array as="points">
              <mxPoint x="690" y="350" />
              <mxPoint x="690" y="150" />
            </Array>
          </mxGeometry>
        </mxCell>
        <mxCell id="RUvTbH-vuZG6BQ2jyu1d-4" value="Користувач" style="shape=umlActor;verticalLabelPosition=bottom;verticalAlign=top;html=1;outlineConnect=0;" vertex="1" parent="1">
          <mxGeometry x="730" y="320" width="30" height="60" as="geometry" />
        </mxCell>
      </root>
    </mxGraphModel>
  </diagram>
  <diagram id="gaE9dT2PEob7EBG7JH7i" name="Page-3">
    <mxGraphModel dx="1434" dy="761" grid="1" gridSize="10" guides="1" tooltips="1" connect="1" arrows="1" fold="1" page="1" pageScale="1" pageWidth="850" pageHeight="1100" math="0" shadow="0">
      <root>
        <mxCell id="0" />
        <mxCell id="1" parent="0" />
      </root>
    </mxGraphModel>
  </diagram>
</mxfile>
